# xmcd CD database file
#
# Track frame offsets:
#	150
#	11610
#	23112
#	37482
#
# Disc length: 656 seconds
#
# Revision: 2
# Processed by: cddbd v1.4b41PL1 Copyright (c) Steve Scherf et al.
# Submitted via: Feurio! 1.52 - http://www.feurio.com
#
DISCID=2d028e04
DTITLE=Uncle Ho - Unbekannte CD #2D028E040E123389
DYEAR=1900
DGENRE=
TTITLE0=I Don`t Care If You Like Me 
TTITLE1=You Hate Yourself You Want To Die
TTITLE2=Am I on My Way Home ?
TTITLE3=I Don`t Care If You Like Me
EXTD=
EXTT0=
EXTT1=
EXTT2=
EXTT3=
PLAYORDER=
